<svg xmlns="http://www.w3.org/2000/svg" width="39.563" height="23.514" viewBox="0 0 39.563 23.514"><defs><style>.a{fill:#fd264e;}</style></defs><g transform="translate(0 0)"><g transform="translate(0 0)"><path class="a" d="M3.141,4.477C-.456,8.642,0,14.564,0,14.564c1.038,9.311,9.552,8.94,9.552,8.94A8.979,8.979,0,1,0,3.748,7.68c1.951-4.288,6-5.967,9.034-6.62a.539.539,0,0,0-.1-1.067h-.042A12.31,12.31,0,0,0,3.149,4.463Z" transform="translate(21.025 0.008)"/><path class="a" d="M83.453,4.474H83.44C79.842,8.639,80.3,14.562,80.3,14.562c1.049,9.311,9.565,8.94,9.565,8.94A8.979,8.979,0,1,0,84.057,7.68c1.951-4.288,6.014-5.967,9.037-6.62a.539.539,0,0,0-.1-1.067h-.042a12.318,12.318,0,0,0-9.491,4.471Z" transform="translate(-80.283 0.01)"/></g></g></svg>