<svg xmlns="http://www.w3.org/2000/svg" width="15.644" height="13.004" viewBox="0 0 15.644 13.004"><defs><style>.a{fill:none;stroke:#fd264e;stroke-linecap:round;stroke-linejoin:round;}</style></defs><g transform="translate(-1 -3.978)"><path class="a" d="M12.15,26.494V25.163A2.663,2.663,0,0,0,9.488,22.5H4.163A2.663,2.663,0,0,0,1.5,25.163v1.331" transform="translate(0 -10.012)"/><path class="a" d="M12.825,7.163A2.663,2.663,0,1,1,10.163,4.5a2.663,2.663,0,0,1,2.663,2.663Z" transform="translate(-3.337)"/><path class="a" d="M32,26.6V25.271A2.663,2.663,0,0,0,30,22.7" transform="translate(-15.853 -10.121)"/><path class="a" d="M24,4.7a2.663,2.663,0,0,1,0,5.159" transform="translate(-12.515 -0.108)"/></g></svg>